<svg xmlns="http://www.w3.org/2000/svg" viewBox="0 0 960 640" fill="none">
  <rect width="960" height="640" rx="32" fill="#F5EFE4" />
  <rect x="48" y="44" width="864" height="552" rx="28" fill="#FBF8F1" stroke="#1A1A1A" stroke-opacity=".16" stroke-width="3" />
  <ellipse cx="470" cy="484" rx="314" ry="64" fill="#D8DDE6" fill-opacity=".7" />
  <rect x="132" y="130" width="696" height="300" rx="28" fill="#FFFDF9" stroke="#1A1A1A" stroke-opacity=".12" stroke-width="3" />
  <rect x="208" y="214" width="544" height="190" rx="26" fill="#B8875C" stroke="#805738" stroke-width="5" />
  <rect x="232" y="164" width="128" height="208" rx="24" fill="#C9986D" stroke="#805738" stroke-width="5" />
  <rect x="380" y="184" width="118" height="188" rx="22" fill="#C28E63" stroke="#805738" stroke-width="5" />
  <rect x="518" y="174" width="98" height="198" rx="22" fill="#D0A37A" stroke="#805738" stroke-width="5" />
  <rect x="636" y="204" width="92" height="168" rx="20" fill="#C48F64" stroke="#805738" stroke-width="5" />
  <rect x="250" y="104" width="16" height="178" rx="8" fill="#F4C74B" />
  <rect x="274" y="92" width="16" height="190" rx="8" fill="#7CC2F0" />
  <rect x="298" y="118" width="16" height="164" rx="8" fill="#E57B6E" />
  <rect x="432" y="116" width="92" height="118" rx="16" fill="#F5EBD9" stroke="#1A1A1A" stroke-opacity=".25" stroke-width="3" />
  <path d="M432 154h92M432 194h92" stroke="#C6B39A" stroke-width="4" />
  <rect x="542" y="118" width="46" height="78" rx="14" fill="#9AD099" stroke="#1A1A1A" stroke-opacity=".2" stroke-width="3" />
  <rect x="648" y="126" width="44" height="44" rx="12" fill="#F2B963" stroke="#1A1A1A" stroke-opacity=".2" stroke-width="3" />
  <path d="M160 476h640" stroke="#8D7961" stroke-width="5" stroke-linecap="round" />
</svg>
