<svg xmlns="http://www.w3.org/2000/svg" viewBox="0 0 960 640" fill="none">
  <rect width="960" height="640" rx="32" fill="#F6F1E7" />
  <rect x="74" y="84" width="812" height="472" rx="32" fill="#FCFAF5" stroke="#1A1A1A" stroke-opacity=".18" stroke-width="3" />
  <rect x="118" y="352" width="724" height="132" rx="24" fill="#E5D8C6" />
  <rect x="154" y="174" width="258" height="146" rx="20" fill="#C89569" stroke="#81593C" stroke-width="5" />
  <path d="M186 206h194M186 248h156" stroke="#E9C7A5" stroke-width="7" stroke-linecap="round" />
  <rect x="460" y="158" width="118" height="190" rx="18" fill="#FAF7F0" stroke="#1A1A1A" stroke-opacity=".28" stroke-width="4" />
  <path d="M490 194h58M490 234h58M490 274h58" stroke="#C9BAA5" stroke-width="5" stroke-linecap="round" />
  <rect x="620" y="180" width="170" height="26" rx="13" fill="#B3BDC9" />
  <rect x="648" y="196" width="12" height="112" rx="6" fill="#B3BDC9" />
  <path d="M650 304 620 344h170l-30-40" fill="#D7A95B" />
  <rect x="196" y="388" width="156" height="42" rx="18" fill="#F3C64E" stroke="#B88725" stroke-width="4" />
  <circle cx="574" cy="418" r="34" fill="#7CC2F0" />
  <path d="M724 390c34 0 62 28 62 62" stroke="#E67B67" stroke-width="12" stroke-linecap="round" />
</svg>
