<svg xmlns="http://www.w3.org/2000/svg" viewBox="0 0 960 640" fill="none">
  <rect width="960" height="640" rx="32" fill="#F7F3EA" />
  <rect x="80" y="88" width="800" height="464" rx="30" fill="#FDFBF6" stroke="#1A1A1A" stroke-opacity=".18" stroke-width="3" />
  <rect x="118" y="432" width="724" height="86" rx="16" fill="#C99B74" />
  <path d="M294 140h92v70c0 22-18 40-40 40h-12c-22 0-40-18-40-40v-70Z" fill="#A3D8EF" stroke="#5D8196" stroke-width="4" />
  <path d="M420 154h86v58c0 22-16 38-38 38h-10c-22 0-38-16-38-38v-58Z" fill="#A3D8EF" stroke="#5D8196" stroke-width="4" />
  <path d="M296 250h90M422 250h84" stroke="#6A523C" stroke-width="6" stroke-linecap="round" stroke-dasharray="10 12" />
  <path d="M542 168c16 0 28 12 28 28s-12 28-28 28-28-12-28-28 12-28 28-28Z" fill="#EFE6CC" />
  <path d="M580 234 650 314" stroke="#EFE6CC" stroke-width="10" stroke-linecap="round" />
  <path d="M666 178c18 0 34 14 34 32s-16 32-34 32-34-14-34-32 16-32 34-32Z" fill="#7BC26A" />
</svg>
